<?xml version="1.0" encoding="UTF-8"?>
<svg id="svg8" width="2137.6pt" height="750pt" version="1.1" viewBox="0 0 2137.6 750" xmlns="http://www.w3.org/2000/svg" xmlns:cc="http://creativecommons.org/ns#" xmlns:dc="http://purl.org/dc/elements/1.1/" xmlns:rdf="http://www.w3.org/1999/02/22-rdf-syntax-ns#">
 <defs id="defs2">
  <clipPath id="clipPath30">
   <path id="path28" d="m585.02 252.65h28.214v80.413h-28.214z"/>
  </clipPath>
 </defs>
 <metadata id="metadata5">
  <rdf:RDF>
   <cc:Work rdf:about="">
    <dc:format>image/svg+xml</dc:format>
    <dc:type rdf:resource="http://purl.org/dc/dcmitype/StillImage"/>
    <dc:title/>
   </cc:Work>
  </rdf:RDF>
 </metadata>
 <g id="layer1" transform="translate(162.35 502.57)">
  <g id="g1550" transform="matrix(26.583 0 0 26.583 4153.3 -6329.8)">
   <path id="path14" d="m-117.27 235.64c0-0.882-0.34899-1.603-1.071-2.207-0.312-0.25-0.646-0.429-0.987-0.573 0.177-0.081 0.388-0.175 0.388-0.175 0.865-0.52 1.363-1.436 1.363-2.511 0-1.867-1.623-3.223-3.857-3.223-0.683 0-1.377 0.134-2.124 0.409-0.741 0.267-1.485 0.686-2.041 1.153l-0.117 0.098 1.205 1.466 0.296-0.216 0.271-0.183c0.256-0.181 1.107-0.729 2.2-0.729 1.025 0 1.661 0.561 1.661 1.461 0 1.018-0.784 1.328-1.443 1.407-0.267 0.061-0.682 0.059-1.257 0.055h-0.71v1.888h0.752c1.079 0 1.461 0.035 1.854 0.174 0.618 0.228 1.003 0.811 1.003 1.523 0 0.731-0.295 1.37-0.852 1.842-0.822 0.722-1.97 1.072-3.511 1.072-0.51 0-0.682-0.016-1.152-0.106l-0.262-0.051 0.593 1.731 1.347 0.08c1.324 0 2.568-0.217 3.506-0.612 1.817-0.743 2.945-2.188 2.945-3.773" fill="#2c3797"/>
   <path id="path18" d="m-107.99 231.02c0 0.557-0.117 1.022-0.392 1.347-0.352 0.396-0.86401 0.581-1.793 0.581h-1.698v-3.813h1.512c0.885 0 1.466 0.163 1.86 0.535 0.326 0.326 0.511 0.767 0.511 1.35zm2.813-0.071c0-1.397-0.721-2.582-1.951-3.209-0.74499-0.371-1.418-0.581-3.768-0.581h-3.556v12.324h2.579v-4.513h1.675c1.349 0 2.139-0.137 3.16-0.718 1.023-0.557 1.861-1.745 1.861-3.303" fill="#2c3797"/>
   <path id="path20" d="m-98.077 234.55h-2.976c0.21001-0.744 1.372-4.35 1.512-5.046 0.116 0.696 1.232 4.254 1.464 5.046zm4.416 4.929-4.392-12.371h-2.79l-4.579 12.371h2.673l1.044-2.953h4.209l1.069 2.953h2.766" fill="#2c3797"/>
   <path id="path22" d="m-85.424 230.78c0 0.582-0.186 1.001-0.533 1.281-0.418 0.325-1.047 0.441-2.116 0.441h-1.116v-3.395h1.232c0.629 0 1.091 0.069 1.487 0.186 0.697 0.21 1.046 0.744 1.046 1.487zm3.488 8.698-1.697-2.488c-0.557-0.837-1.209-1.696-1.604-2.209-0.187-0.256-0.394-0.466-0.558-0.581 1.742-0.163 3.045-1.535 3.045-3.442 0-1.093-0.442-2.046-1.278-2.744-0.768-0.65-1.908-0.86-3.533-0.86h-4.162v12.324h2.534v-5.139c0.325 0 0.676 0.116 0.884 0.303 0.418 0.371 0.836 0.837 2.068 2.86l1.209 1.976h3.092" fill="#2c3797"/>
   <g id="g24" transform="matrix(0 1 1 0 -415 -365.8)">
    <g id="g26" clip-path="url(#clipPath30)">
     <path id="path32" d="m602.72 275.63-3.034-6.451c-0.31-0.657-0.812-0.657-1.122 0l-3.033 6.451 3.033 6.452c0.31 0.657 0.812 0.657 1.122 0l3.034-6.452" fill="#00adef"/>
     <path id="path34" d="m585.02 266.17c-0.31 0.66-0.31 1.728 0 2.388l6.357 13.522c0.311 0.657 0.813 0.657 1.122 0l3.034-6.452-3.326-7.07c-0.309-0.66-0.309-1.728 0-2.388l3.326-7.071-3.034-6.451c-0.309-0.657-0.811-0.657-1.122 0l-6.357 13.522" fill="#59c134"/>
     <path id="path36" d="m613.23 266.17c0.311 0.66 0.311 1.728 0 2.388l-6.356 13.522c-0.311 0.657-0.813 0.657-1.123 0l-3.033-6.452 3.325-7.07c0.309-0.66 0.309-1.728 0-2.388l-3.325-7.071 3.033-6.451c0.31-0.657 0.812-0.657 1.123 0l6.356 13.522" fill="#2c3797"/>
    </g>
   </g>
  </g>
 </g>
</svg>
